<svg width="28" height="29" viewBox="0 0 28 29" fill="none" xmlns="http://www.w3.org/2000/svg">
<rect y="0.0805664" width="28" height="28" rx="4" fill="#F9F9F9"/>
<path d="M3.913 18V10.3H5.387L8.665 15.734H7.884L11.107 10.3H12.57L12.592 18H10.92L10.909 12.863H11.217L8.643 17.186H7.84L5.211 12.863H5.585V18H3.913ZM14.6169 18.088C14.3235 18.088 14.0705 17.989 13.8579 17.791C13.6525 17.5857 13.5499 17.3253 13.5499 17.01C13.5499 16.6947 13.6525 16.4417 13.8579 16.251C14.0705 16.053 14.3235 15.954 14.6169 15.954C14.9175 15.954 15.1705 16.053 15.3759 16.251C15.5812 16.4417 15.6839 16.6947 15.6839 17.01C15.6839 17.3253 15.5812 17.5857 15.3759 17.791C15.1705 17.989 14.9175 18.088 14.6169 18.088ZM16.5168 18V9.838H18.2328V18H16.5168ZM20.2434 20.222C19.9354 20.222 19.631 20.1743 19.3304 20.079C19.0297 19.9837 18.784 19.8517 18.5934 19.683L19.2204 18.462C19.3524 18.5793 19.5027 18.671 19.6714 18.737C19.8474 18.803 20.0197 18.836 20.1884 18.836C20.4304 18.836 20.621 18.7773 20.7604 18.66C20.907 18.55 21.039 18.363 21.1564 18.099L21.4644 17.373L21.5964 17.186L23.7194 12.082H25.3694L22.6964 18.363C22.5057 18.8397 22.2857 19.2137 22.0364 19.485C21.7944 19.7563 21.523 19.947 21.2224 20.057C20.929 20.167 20.6027 20.222 20.2434 20.222ZM21.2554 18.231L18.6154 12.082H20.3864L22.4324 17.032L21.2554 18.231Z" fill="#0B0121"/>
</svg>
